<svg version="1.1" id="Layer_1" xmlns="http://www.w3.org/2000/svg" xmlns:xlink="http://www.w3.org/1999/xlink" x="0px" y="0px"
	 width="100%" viewBox="0 0 500 500" enable-background="new 0 0 500 500" xml:space="preserve">
<path fill="#000000" opacity="1.000000" stroke="none" 
	d="
M225.000000,501.000000 
	C150.000015,501.000000 75.500038,501.000000 1.000040,501.000000 
	C1.000027,334.333405 1.000027,167.666779 1.000013,1.000129 
	C167.666565,1.000086 334.333130,1.000086 500.999756,1.000043 
	C500.999847,167.666534 500.999847,334.333069 500.999939,500.999817 
	C409.166656,501.000000 317.333344,501.000000 225.000000,501.000000 
M216.102600,277.114349 
	C216.102600,277.114349 216.208801,276.979828 216.546707,277.754669 
	C243.384460,277.831085 270.222229,277.914368 297.059998,277.943817 
	C297.720764,277.944519 298.382141,277.347839 299.640503,276.642944 
	C302.041382,273.025879 300.940765,270.675079 296.295685,269.202850 
	C295.816650,269.151093 295.337585,269.099365 294.756042,268.736328 
	C294.756042,268.736328 294.369202,268.637146 294.369202,268.637146 
	C294.369202,268.637146 294.136749,269.046692 293.539825,269.092072 
	C293.340576,269.102295 293.141296,269.112488 292.531403,268.558136 
	C290.719513,268.776917 288.907623,268.995697 286.575592,269.080688 
	C286.399170,269.050140 286.222778,269.019623 285.841278,268.640045 
	C285.544830,268.756195 285.248383,268.872375 284.433746,269.078430 
	C284.264099,269.122650 284.094482,269.166840 283.219543,269.103027 
	C282.509644,269.142731 281.799774,269.182465 280.154877,269.112244 
	C275.760345,269.093750 271.365814,269.075226 266.583923,268.521149 
	C265.399231,268.699554 264.214508,268.877991 262.121826,269.068970 
	C259.395050,269.053589 256.668274,269.038208 253.792496,268.695862 
	C253.547745,268.804810 253.302994,268.913757 252.223938,269.058380 
	C251.113586,269.121368 250.003235,269.184357 248.023392,269.117737 
	C245.384247,269.152832 242.745087,269.187958 239.413651,269.104553 
	C238.946899,269.067108 238.480148,269.029694 237.597214,268.491333 
	C236.101898,268.738770 234.606567,268.986237 232.246490,269.105865 
	C230.618027,269.330170 228.973358,269.820038 227.364548,269.721893 
	C224.287064,269.534180 221.027481,269.515839 218.255493,268.401886 
	C216.995178,267.895416 216.206512,264.949402 216.193970,263.103241 
	C216.187027,262.081116 218.088104,260.409332 219.365372,260.136536 
	C222.956192,259.369629 226.682266,259.265015 230.332123,258.740173 
	C241.561081,257.125397 252.779343,255.436386 264.820465,253.790680 
	C275.250336,252.465942 285.654633,250.851089 296.120026,249.929932 
	C301.992737,249.413040 305.740143,247.278778 307.005035,241.503967 
	C308.795776,233.328323 310.038116,225.023636 312.074371,216.914612 
	C313.030579,213.106491 312.607452,210.072281 311.014557,206.963898 
	C316.693939,204.139435 316.734467,203.877655 313.582977,198.057129 
	C312.825775,196.658722 312.428528,195.064270 311.877014,193.555862 
	C309.095978,185.949707 304.153107,180.919495 295.235199,179.725845 
	C293.021027,179.247192 290.806854,178.768539 287.806152,178.119858 
	C292.163025,175.382782 293.961121,172.034164 291.953613,168.755814 
	C290.565063,166.488251 287.134186,164.569321 284.467896,164.357391 
	C283.083649,164.247360 281.378021,168.180145 279.817596,170.286621 
	C280.209778,170.692749 280.601929,171.098877 280.994080,171.505005 
	C283.094177,170.767502 285.194244,170.029999 288.597260,168.834946 
	C286.158386,172.367386 284.864716,175.541367 282.505585,177.198074 
	C280.949463,178.290878 277.860626,177.201141 274.640167,176.963577 
	C270.736938,177.171234 266.310577,176.292969 263.061432,177.858322 
	C258.893402,179.866348 255.470306,183.637512 252.092484,187.015289 
	C247.623962,191.483749 247.820663,191.941025 253.220749,198.556992 
	C256.126923,202.117538 258.966980,200.885437 261.819855,198.103806 
	C260.910248,204.038544 260.063751,209.561508 259.014313,215.874283 
	C258.355560,219.693466 257.250824,223.513245 257.255798,227.331558 
	C257.257812,228.876419 259.404663,231.210434 261.063660,231.791397 
	C264.224670,232.898300 267.725922,233.087631 271.104645,233.507065 
	C277.716980,234.327911 284.342224,235.045151 291.739044,235.942581 
	C296.657349,233.918701 296.640747,228.798721 297.713135,224.952820 
	C299.553986,218.350967 299.976379,211.353592 301.021057,204.342438 
	C302.328430,206.111252 303.419556,207.587540 304.779388,209.823196 
	C303.518494,216.704147 302.179565,223.571945 301.016968,230.469467 
	C299.644470,238.612274 297.932861,240.373993 290.860229,240.901154 
	C288.926727,241.045273 287.032593,241.717438 284.224457,242.042648 
	C275.739563,243.329727 267.254669,244.616791 258.070068,245.969238 
	C257.376099,246.076263 256.682129,246.183289 255.323639,246.192322 
	C254.876083,246.184799 254.428543,246.177277 253.501526,246.061127 
	C253.501526,246.061127 253.016205,246.139542 252.220383,246.203934 
	C246.158752,247.157852 240.097107,248.111786 233.202774,249.053284 
	C227.844467,250.031021 222.486145,251.008759 216.323746,252.039825 
	C214.829056,251.700485 213.334351,251.361145 211.957062,250.304413 
	C211.677994,249.188431 211.398941,248.072464 210.986069,246.157410 
	C207.972366,234.471451 204.958664,222.785492 201.845856,210.322601 
	C200.205475,203.947571 198.590607,197.565842 196.916473,191.199692 
	C195.621475,186.275253 194.810638,181.125488 192.788010,176.512894 
	C189.588501,169.216354 178.465546,165.155212 167.875992,167.124939 
	C166.092148,167.456757 164.674484,169.757263 163.087631,171.148148 
	C164.676880,172.738266 166.019363,175.194595 167.908310,175.732742 
	C171.506805,176.757935 175.516357,176.298248 179.159851,177.224014 
	C181.230164,177.750061 184.082504,179.462112 184.588028,181.215225 
	C189.051910,196.696075 193.077652,212.303497 197.213440,227.878662 
	C200.494873,240.236298 203.748978,252.601166 207.007812,265.010895 
	C207.007812,265.010895 207.049728,264.986237 207.091690,265.790924 
	C207.368942,267.548248 207.354034,269.418976 207.983261,271.039642 
	C209.363327,274.594269 211.603195,277.301147 216.102600,277.114349 
M341.268555,330.297272 
	C341.488037,331.705902 341.892303,333.115234 341.887177,334.523041 
	C341.877563,337.172516 342.550873,339.672821 345.605713,338.654602 
	C347.381989,338.062561 349.334595,335.735107 349.759064,333.860474 
	C350.470215,330.719757 350.023468,327.316864 350.538452,323.951080 
	C350.538452,323.951080 351.005157,323.838501 351.913666,323.924713 
	C354.523773,323.924713 357.133850,323.924713 361.293243,323.924713 
	C359.628998,320.877319 358.824890,317.369507 357.318329,317.036163 
	C353.160797,316.116119 348.699066,316.332672 344.383575,316.570801 
	C343.546082,316.617004 342.394104,318.713715 342.153595,320.007080 
	C341.796417,321.928131 342.122620,323.976196 342.085297,326.747162 
	C342.021484,327.784058 341.957703,328.820984 341.268555,330.297272 
M250.022034,215.610138 
	C249.672653,215.018188 249.323288,214.426254 248.908844,213.042511 
	C247.173599,207.109467 245.438354,201.176437 243.875732,194.420242 
	C242.413422,189.307373 240.820663,184.226868 239.540802,179.068726 
	C238.843018,176.256607 237.279190,174.635864 234.532578,175.117920 
	C230.588043,175.810257 226.739685,177.044937 222.844101,178.023560 
	C219.437561,178.879318 218.435013,180.747314 219.598679,184.205399 
	C221.352234,189.416458 222.733810,194.752670 224.417587,200.764130 
	C227.660583,211.919830 230.962219,223.058945 234.122940,234.237915 
	C235.815781,240.225204 238.846619,242.217316 244.904373,240.818481 
	C246.604355,240.425919 248.237000,239.741806 250.729507,239.103180 
	C254.077774,239.037827 255.653366,237.156586 254.845627,234.070190 
	C253.401459,228.551834 251.531647,223.144867 249.865372,217.244186 
	C249.879272,216.944351 249.857941,216.647064 250.022034,215.610138 
M204.007645,207.789490 
	C204.109070,209.106018 203.956985,210.505783 204.357040,211.724274 
	C205.859253,216.299789 207.752106,220.754517 209.103622,225.370163 
	C210.823105,231.242538 212.326950,237.191360 213.605316,243.175278 
	C214.578262,247.729462 217.537827,248.438217 221.359055,247.905838 
	C231.015747,246.560425 234.654800,243.138077 232.835770,236.268204 
	C229.177658,222.452744 225.067932,208.756882 220.940704,194.226654 
	C220.613464,192.651566 220.249741,191.083038 219.965286,189.500259 
	C218.744247,182.706390 216.323517,180.314636 210.974655,181.055435 
	C208.449371,181.405167 205.978409,182.208633 203.511749,182.908447 
	C196.607529,184.867310 197.207947,187.195816 198.925110,192.488541 
	C200.510147,197.373962 202.412643,202.156387 204.007645,207.789490 
M179.990540,319.006714 
	C179.798538,323.647797 179.611298,328.289062 179.412796,332.929871 
	C179.284378,335.932404 179.572220,338.733978 183.484924,338.832031 
	C187.168335,338.924408 187.675034,336.063507 187.870010,333.374664 
	C188.089569,330.346649 187.920547,327.290405 187.920547,324.246460 
	C188.457275,324.083252 188.994019,323.920044 189.530746,323.756836 
	C190.424957,324.708160 191.818542,325.528564 192.109436,326.638062 
	C192.715057,328.948029 192.860504,331.405670 192.965149,333.812622 
	C193.076431,336.372009 192.722000,339.042786 196.582733,338.919128 
	C200.416214,338.796326 199.817368,336.009155 200.026459,333.546356 
	C200.293259,330.403656 200.780640,327.279755 201.278000,323.309082 
	C209.217865,327.340515 204.196838,334.204834 206.599243,338.724487 
	C208.279053,338.724487 209.912506,338.724487 212.312027,338.724487 
	C212.543045,334.696747 212.577042,330.773621 213.039780,326.901703 
	C213.584671,322.342255 211.887543,318.602631 207.881714,317.228119 
	C204.809952,316.174133 201.061050,317.093475 197.613312,317.135193 
	C192.187943,316.991730 186.742279,316.591156 181.289413,316.361969 
	C180.907394,316.345886 180.472046,317.598083 179.990540,319.006714 
M303.446777,311.806183 
	C301.752899,313.491943 300.059021,315.177704 298.195557,317.032257 
	C297.604004,308.926117 295.919739,307.228271 289.331451,308.773285 
	C289.331451,316.937531 289.204285,325.279266 289.414398,333.612488 
	C289.472168,335.903107 289.562439,338.918671 293.246613,338.872375 
	C296.447479,338.832184 298.200653,337.419037 297.970947,333.962982 
	C297.880859,332.607513 298.183441,331.225983 298.396118,328.871887 
	C300.305267,330.971924 301.487732,332.309174 302.710999,333.607941 
	C303.923828,334.895660 304.989075,336.481384 306.469513,337.311066 
	C307.811127,338.062836 309.870758,338.577759 311.151825,338.058197 
	C312.151581,337.652710 313.185852,335.300934 312.882172,334.168823 
	C312.372070,332.267181 311.057800,330.408386 309.648132,328.951172 
	C303.962708,323.073975 304.086670,323.305511 309.384308,317.607452 
	C310.957123,315.915771 312.522461,312.308777 311.751678,310.700989 
	C309.350494,305.692169 306.370239,308.512543 303.446777,311.806183 
M216.923721,332.494141 
	C216.937469,336.150696 216.584900,339.863708 217.136032,343.437378 
	C217.373505,344.977112 219.258636,346.999084 220.789658,347.443604 
	C223.630127,348.268402 224.819153,346.165497 224.908875,343.459167 
	C224.960892,341.889923 225.075851,340.322754 225.153854,338.910675 
	C227.266571,338.910675 228.762070,338.938568 230.256226,338.905609 
	C235.401077,338.792114 239.485352,335.331787 240.766434,330.027405 
	C241.862595,325.488708 239.407776,318.908905 235.018265,317.728516 
	C230.133850,316.415100 224.831467,316.396545 219.715973,316.437012 
	C218.777023,316.444427 217.267776,319.352997 217.059982,321.049591 
	C216.638733,324.488770 216.928040,328.015015 216.923721,332.494141 
M134.126907,328.500183 
	C130.825073,322.315704 131.620544,320.292450 137.282776,316.340576 
	C140.499069,314.095825 141.891251,316.542969 144.187531,317.491852 
	C145.881683,318.191956 148.207367,317.920746 150.047852,317.383728 
	C150.629745,317.213928 151.241684,314.150787 150.650787,313.512390 
	C148.781174,311.492554 146.571213,309.031372 144.095932,308.459717 
	C133.487366,306.009766 127.196831,310.449463 124.850807,321.321930 
	C123.584290,327.191498 126.063545,334.022003 130.486053,336.847321 
	C135.609848,340.120667 144.990417,339.964050 149.194229,336.102356 
	C150.369583,335.022675 150.406219,332.703369 150.965210,330.952728 
	C149.192276,330.527252 147.296188,329.479034 145.671021,329.800507 
	C141.786469,330.568848 138.018250,332.283264 134.126907,328.500183 
M158.578491,338.191437 
	C163.120178,338.407715 167.689178,338.976013 172.187027,338.627197 
	C173.548538,338.521606 175.607285,335.981110 175.794800,334.374786 
	C176.292679,330.109711 176.125168,325.735779 175.885620,321.423828 
	C175.592453,316.146729 174.001816,315.285339 168.998779,317.049561 
	C168.258163,317.310760 167.222061,317.164032 166.458755,316.862030 
	C161.030502,314.714508 155.969482,316.921326 153.235916,322.716095 
	C150.607498,328.287964 152.712952,335.305176 158.578491,338.191437 
M338.451813,330.927490 
	C338.506165,329.129791 338.807190,327.297058 338.558075,325.542450 
	C338.166840,322.786896 338.217621,319.266785 336.550964,317.608734 
	C335.132599,316.197723 331.552094,316.987427 328.934784,316.734772 
	C328.292114,316.672699 327.689667,316.252899 327.044373,316.149628 
	C321.419708,315.249695 315.419037,319.851532 315.067749,325.304047 
	C314.490875,334.257996 317.924622,338.964722 325.159180,338.907471 
	C329.050934,338.876648 332.940460,338.560333 337.241699,338.353058 
	C337.522827,336.263428 337.829010,333.987915 338.451813,330.927490 
M274.871490,338.956635 
	C276.367371,338.947021 277.867401,339.005188 279.358337,338.914459 
	C283.019989,338.691559 286.247681,336.801788 286.485565,333.355042 
	C286.647705,331.006256 284.292572,328.380646 282.776672,326.066345 
	C282.107117,325.044159 280.727844,324.486816 280.226074,324.122070 
	C282.068237,323.261169 284.053589,322.755707 285.315063,321.514465 
	C285.755646,321.080963 284.808563,318.385986 283.807983,317.499390 
	C280.870728,314.896759 272.778931,315.440704 270.467224,318.074799 
	C267.947418,320.946106 268.616425,326.081299 271.980225,329.710236 
	C270.269562,330.951630 268.558868,332.193054 265.489258,334.420624 
	C268.950439,336.244751 271.489838,337.583069 274.871490,338.956635 
M243.990204,332.752899 
	C244.787781,333.987396 245.433228,335.360229 246.408646,336.433044 
	C251.246292,341.753693 262.903259,339.484894 264.416016,332.616180 
	C265.359863,328.330536 264.988495,323.674133 264.613770,319.234161 
	C264.515625,318.071167 262.203705,317.094971 260.908478,316.032959 
	C259.949005,317.304352 258.434387,318.464966 258.153778,319.871796 
	C257.673798,322.277863 258.459839,324.989197 257.758148,327.279419 
	C257.305847,328.755615 255.146576,329.708893 253.752319,330.896515 
	C252.831543,329.582428 251.433395,328.376831 251.104324,326.928314 
	C250.636078,324.867218 251.360504,322.515961 250.807587,320.499207 
	C250.353989,318.844696 248.780106,317.497314 247.702820,316.013794 
	C246.495285,317.477844 244.473434,318.825226 244.243668,320.429321 
	C243.705994,324.183258 244.027695,328.060303 243.990204,332.752899 
M292.233185,284.453766 
	C288.484192,278.508850 283.302307,277.529449 277.099213,281.593414 
	C273.306610,284.078186 271.231750,292.726471 273.587799,296.229614 
	C276.583191,300.683380 283.939758,301.898590 289.314148,299.240051 
	C293.289093,297.273712 295.838348,291.256714 292.233185,284.453766 
M225.732620,300.853973 
	C226.397797,300.824371 227.076309,300.869537 227.726089,300.753632 
	C234.117691,299.613434 237.786057,296.128082 237.901245,291.124268 
	C238.019714,285.978058 233.820526,280.738708 228.418793,279.292908 
	C224.933594,278.360046 219.009705,281.283783 217.745773,284.560547 
	C214.669617,292.535614 217.028061,297.861664 225.732620,300.853973 
M361.253204,318.959991 
	C361.403198,320.245941 361.115143,322.324036 361.774597,322.688721 
	C365.916199,324.979004 364.784607,328.797180 365.188629,332.297607 
	C365.426025,334.354309 366.248810,336.493835 367.390198,338.208923 
	C367.757385,338.760681 370.960175,338.458557 371.183228,337.888611 
	C372.011658,335.771881 372.231750,333.390961 372.484833,331.087769 
	C372.588043,330.148651 371.855743,329.058838 372.098541,328.207214 
	C372.502991,326.788635 373.196381,324.524994 374.103851,324.349091 
	C376.959106,323.795532 378.609772,322.359528 377.832825,319.726257 
	C377.373901,318.170868 375.311523,317.088623 373.115509,314.968292 
	C373.123413,315.035339 373.361023,313.490601 372.730225,312.497314 
	C371.660889,310.813477 370.043518,309.477692 368.656494,307.995605 
	C367.527100,309.429047 366.320557,310.809357 365.287598,312.309204 
	C363.962433,314.233185 362.776825,316.253296 361.253204,318.959991 
M328.492279,170.079971 
	C324.960266,164.068344 319.377411,160.760040 312.925964,159.026947 
	C311.326691,158.597336 309.211426,160.088593 307.333344,160.696869 
	C308.500580,161.855988 309.466034,163.453720 310.869476,164.099518 
	C317.515869,167.157806 324.480835,169.633499 325.931702,178.295441 
	C326.676880,182.744339 327.954071,187.104126 329.258453,192.639847 
	C330.580902,191.290649 332.480988,190.248703 332.871918,188.799622 
	C334.657990,182.179031 332.617798,176.216660 328.492279,170.079971 
M314.452637,178.133698 
	C315.571259,180.414032 316.584198,182.755112 317.847076,184.952530 
	C318.638947,186.330338 319.806488,187.492218 320.805511,188.750961 
	C321.536743,187.148987 322.905884,185.540863 322.890503,183.946091 
	C322.817902,176.417435 317.117096,170.680176 307.822571,168.274261 
	C304.996735,170.970795 305.218597,172.910522 309.042206,174.421143 
	C310.812500,175.120529 312.310303,176.509613 314.452637,178.133698 
z"/>
<path fill="#F6C02B" opacity="1.000000" stroke="none" 
	d="
M295.749817,180.006561 
	C304.153107,180.919495 309.095978,185.949707 311.877014,193.555862 
	C312.428528,195.064270 312.825775,196.658722 313.582977,198.057129 
	C316.734467,203.877655 316.693939,204.139435 310.296936,207.140533 
	C307.889771,207.899384 306.200226,208.481598 304.510712,209.063812 
	C303.419556,207.587540 302.328430,206.111252 301.021057,204.342438 
	C299.976379,211.353592 299.553986,218.350967 297.713135,224.952820 
	C296.640747,228.798721 296.657349,233.918701 291.398193,235.469818 
	C294.749298,218.876328 286.291412,206.104919 270.040985,203.262329 
	C264.767761,202.339890 263.050598,203.464417 261.679749,208.381073 
	C261.042480,210.666718 260.049164,212.853104 259.217255,215.084488 
	C260.063751,209.561508 260.910248,204.038544 261.819855,198.103806 
	C258.966980,200.885437 256.126923,202.117538 253.220749,198.556992 
	C247.820663,191.941025 247.623962,191.483749 252.092484,187.015289 
	C255.470306,183.637512 258.893402,179.866348 263.061432,177.858322 
	C266.310577,176.292969 270.736938,177.171234 275.196167,177.301239 
	C276.824860,179.159851 277.897583,180.680786 278.973419,182.554169 
	C283.059845,188.014252 284.253113,188.150772 290.307800,183.999512 
	C292.318390,182.555374 294.034119,181.280960 295.749817,180.006561 
z"/>
<path fill="#243374" opacity="1.000000" stroke="none" 
	d="
M253.941513,269.022827 
	C256.668274,269.038208 259.395050,269.053589 262.823486,269.253479 
	C264.673889,269.310883 265.822571,269.183807 266.971283,269.056702 
	C271.365814,269.075226 275.760345,269.093750 280.835571,269.318726 
	C282.319092,269.420502 283.121979,269.315765 283.924835,269.211060 
	C284.094482,269.166840 284.264099,269.122650 284.966553,269.034546 
	C285.681671,268.990112 285.864044,268.989594 286.046387,268.989105 
	C286.222778,269.019623 286.399170,269.050140 287.130066,269.320465 
	C289.437042,269.414398 291.189514,269.268555 292.942017,269.122711 
	C293.141296,269.112488 293.340576,269.102295 294.018555,269.065826 
	C294.497253,269.039581 294.858551,269.047638 294.858551,269.047638 
	C295.337585,269.099365 295.816650,269.151093 296.729126,269.589935 
	C297.432251,272.260712 297.701904,274.544403 297.508392,276.890442 
	C270.099762,276.961761 243.154282,276.970795 216.208801,276.979828 
	C216.208801,276.979828 216.102600,277.114349 215.932037,276.743713 
	C212.069092,273.863800 208.953888,270.971588 208.512619,266.124268 
	C208.474365,265.704010 207.558136,265.363708 207.049728,264.986237 
	C207.049728,264.986237 207.007812,265.010895 207.009903,264.550415 
	C205.813278,257.735748 204.614563,251.381577 203.367111,244.769028 
	C205.214096,245.564911 206.662445,246.189041 208.114319,246.844055 
	C208.117828,246.874969 208.081528,246.925507 208.221527,247.215973 
	C209.520905,248.678238 210.680283,249.850021 211.839661,251.021805 
	C213.334351,251.361145 214.829056,251.700485 217.050751,252.167694 
	C228.771072,256.380096 229.623322,256.210785 234.035461,249.065704 
	C240.097107,248.111786 246.158752,247.157852 252.724701,246.263229 
	C253.229034,246.322525 253.626038,246.378510 253.626038,246.378510 
	C253.626038,246.378510 253.980988,246.169754 253.980988,246.169754 
	C254.428543,246.177277 254.876083,246.184799 255.756302,246.558105 
	C257.606140,247.866257 259.143036,248.672913 260.407745,249.788193 
	C261.741119,250.964020 262.814697,252.434509 264.001770,253.776245 
	C252.779343,255.436386 241.561081,257.125397 230.332123,258.740173 
	C226.682266,259.265015 222.956192,259.369629 219.365372,260.136536 
	C218.088104,260.409332 216.187027,262.081116 216.193970,263.103241 
	C216.206512,264.949402 216.995178,267.895416 218.255493,268.401886 
	C221.027481,269.515839 224.287064,269.534180 227.364548,269.721893 
	C228.973358,269.820038 230.618027,269.330170 232.959442,269.337158 
	C235.119400,269.376373 236.566406,269.184296 238.013397,268.992249 
	C238.480148,269.029694 238.946899,269.067108 240.087280,269.341827 
	C243.471558,269.468506 246.182220,269.357910 248.892883,269.247314 
	C250.003235,269.184357 251.113586,269.121368 252.861847,269.038574 
	C253.499771,269.018799 253.941513,269.022827 253.941513,269.022827 
z"/>
<path fill="#86CF29" opacity="1.000000" stroke="none" 
	d="
M221.144547,195.011673 
	C225.067932,208.756882 229.177658,222.452744 232.835770,236.268204 
	C234.654800,243.138077 231.015747,246.560425 221.359055,247.905838 
	C217.537827,248.438217 214.578262,247.729462 213.605316,243.175278 
	C212.326950,237.191360 210.823105,231.242538 209.103622,225.370163 
	C207.752106,220.754517 205.859253,216.299789 204.357040,211.724274 
	C203.956985,210.505783 204.109070,209.106018 204.395935,207.279053 
	C210.237656,202.849640 215.691101,198.930649 221.144547,195.011673 
M223.991608,232.551285 
	C222.589523,232.400955 221.187454,232.250610 219.785355,232.100281 
	C219.686111,234.285019 219.586853,236.469772 219.441605,239.666992 
	C222.416702,237.192856 229.083237,239.105850 223.991608,232.551285 
z"/>
<path fill="#F49218" opacity="1.000000" stroke="none" 
	d="
M259.115784,215.479385 
	C260.049164,212.853104 261.042480,210.666718 261.679749,208.381073 
	C263.050598,203.464417 264.767761,202.339890 270.040985,203.262329 
	C286.291412,206.104919 294.749298,218.876328 291.009705,235.401154 
	C284.342224,235.045151 277.716980,234.327911 271.104645,233.507065 
	C267.725922,233.087631 264.224670,232.898300 261.063660,231.791397 
	C259.404663,231.210434 257.257812,228.876419 257.255798,227.331558 
	C257.250824,223.513245 258.355560,219.693466 259.115784,215.479385 
z"/>
<path fill="#13A1E7" opacity="1.000000" stroke="none" 
	d="
M243.703094,195.243393 
	C245.438354,201.176437 247.173599,207.109467 248.962219,213.775085 
	C249.277527,215.122543 249.539444,215.737411 249.801376,216.352295 
	C249.857941,216.647064 249.879272,216.944351 249.645523,217.809814 
	C248.309387,220.886795 249.655319,225.101410 244.432343,224.997284 
	C239.894745,225.502274 239.524933,228.214890 240.266815,232.036026 
	C242.138824,232.036026 244.040649,232.036026 246.276062,232.130478 
	C250.202850,233.367905 250.708145,235.969559 249.900528,239.191406 
	C248.237000,239.741806 246.604355,240.425919 244.904373,240.818481 
	C238.846619,242.217316 235.815781,240.225204 234.122940,234.237915 
	C230.962219,223.058945 227.660583,211.919830 224.530975,200.094391 
	C226.289688,197.955719 227.812485,195.431656 229.604172,195.223618 
	C234.240540,194.685303 238.995499,195.168228 243.703094,195.243393 
z"/>
<path fill="#2C3872" opacity="1.000000" stroke="none" 
	d="
M208.110794,246.813156 
	C206.662445,246.189041 205.214096,245.564911 203.367111,244.769028 
	C204.614563,251.381577 205.813278,257.735748 207.013611,264.526367 
	C203.748978,252.601166 200.494873,240.236298 197.213440,227.878662 
	C193.077652,212.303497 189.051910,196.696075 184.588028,181.215225 
	C184.082504,179.462112 181.230164,177.750061 179.159851,177.224014 
	C175.516357,176.298248 171.506805,176.757935 167.908310,175.732742 
	C166.019363,175.194595 164.676880,172.738266 163.087631,171.148148 
	C164.674484,169.757263 166.092148,167.456757 167.875992,167.124939 
	C178.465546,165.155212 189.588501,169.216354 192.788010,176.512894 
	C194.810638,181.125488 195.621475,186.275253 196.916473,191.199692 
	C198.590607,197.565842 200.205475,203.947571 201.652069,210.969101 
	C197.499161,220.954102 197.672195,229.997787 203.282089,238.709564 
	C204.983444,241.351669 206.506226,244.108734 208.110794,246.813156 
z"/>
<path fill="#2C3872" opacity="1.000000" stroke="none" 
	d="
M180.026031,318.633606 
	C180.472046,317.598083 180.907394,316.345886 181.289413,316.361969 
	C186.742279,316.591156 192.187943,316.991730 197.613312,317.135193 
	C201.061050,317.093475 204.809952,316.174133 207.881714,317.228119 
	C211.887543,318.602631 213.584671,322.342255 213.039780,326.901703 
	C212.577042,330.773621 212.543045,334.696747 212.312027,338.724487 
	C209.912506,338.724487 208.279053,338.724487 206.599243,338.724487 
	C204.196838,334.204834 209.217865,327.340515 201.278000,323.309082 
	C200.780640,327.279755 200.293259,330.403656 200.026459,333.546356 
	C199.817368,336.009155 200.416214,338.796326 196.582733,338.919128 
	C192.722000,339.042786 193.076431,336.372009 192.965149,333.812622 
	C192.860504,331.405670 192.715057,328.948029 192.109436,326.638062 
	C191.818542,325.528564 190.424957,324.708160 189.530746,323.756836 
	C188.994019,323.920044 188.457275,324.083252 187.920547,324.246460 
	C187.920547,327.290405 188.089569,330.346649 187.870010,333.374664 
	C187.675034,336.063507 187.168335,338.924408 183.484924,338.832031 
	C179.572220,338.733978 179.284378,335.932404 179.412796,332.929871 
	C179.611298,328.289062 179.798538,323.647797 180.026031,318.633606 
z"/>
<path fill="#2C3872" opacity="1.000000" stroke="none" 
	d="
M264.411133,253.783463 
	C262.814697,252.434509 261.741119,250.964020 260.407745,249.788193 
	C259.143036,248.672913 257.606140,247.866257 256.088562,246.607101 
	C256.682129,246.183289 257.376099,246.076263 258.569397,246.273163 
	C267.336182,252.829239 280.689178,250.558701 285.120392,242.147263 
	C287.032593,241.717438 288.926727,241.045273 290.860229,240.901154 
	C297.932861,240.373993 299.644470,238.612274 301.016968,230.469467 
	C302.179565,223.571945 303.518494,216.704147 304.645050,209.443512 
	C306.200226,208.481598 307.889771,207.899384 309.953308,207.208344 
	C312.607452,210.072281 313.030579,213.106491 312.074371,216.914612 
	C310.038116,225.023636 308.795776,233.328323 307.005035,241.503967 
	C305.740143,247.278778 301.992737,249.413040 296.120026,249.929932 
	C285.654633,250.851089 275.250336,252.465942 264.411133,253.783463 
z"/>
<path fill="#2C3872" opacity="1.000000" stroke="none" 
	d="
M303.638123,311.497040 
	C306.370239,308.512543 309.350494,305.692169 311.751678,310.700989 
	C312.522461,312.308777 310.957123,315.915771 309.384308,317.607452 
	C304.086670,323.305511 303.962708,323.073975 309.648132,328.951172 
	C311.057800,330.408386 312.372070,332.267181 312.882172,334.168823 
	C313.185852,335.300934 312.151581,337.652710 311.151825,338.058197 
	C309.870758,338.577759 307.811127,338.062836 306.469513,337.311066 
	C304.989075,336.481384 303.923828,334.895660 302.710999,333.607941 
	C301.487732,332.309174 300.305267,330.971924 298.396118,328.871887 
	C298.183441,331.225983 297.880859,332.607513 297.970947,333.962982 
	C298.200653,337.419037 296.447479,338.832184 293.246613,338.872375 
	C289.562439,338.918671 289.472168,335.903107 289.414398,333.612488 
	C289.204285,325.279266 289.331451,316.937531 289.331451,308.773285 
	C295.919739,307.228271 297.604004,308.926117 298.195557,317.032257 
	C300.059021,315.177704 301.752899,313.491943 303.638123,311.497040 
z"/>
<path fill="#2C3872" opacity="1.000000" stroke="none" 
	d="
M216.924072,331.999756 
	C216.928040,328.015015 216.638733,324.488770 217.059982,321.049591 
	C217.267776,319.352997 218.777023,316.444427 219.715973,316.437012 
	C224.831467,316.396545 230.133850,316.415100 235.018265,317.728516 
	C239.407776,318.908905 241.862595,325.488708 240.766434,330.027405 
	C239.485352,335.331787 235.401077,338.792114 230.256226,338.905609 
	C228.762070,338.938568 227.266571,338.910675 225.153854,338.910675 
	C225.075851,340.322754 224.960892,341.889923 224.908875,343.459167 
	C224.819153,346.165497 223.630127,348.268402 220.789658,347.443604 
	C219.258636,346.999084 217.373505,344.977112 217.136032,343.437378 
	C216.584900,339.863708 216.937469,336.150696 216.924072,331.999756 
M227.908112,323.677765 
	C224.583221,324.870514 223.961426,327.480927 225.865112,329.842163 
	C226.740219,330.927582 229.593384,330.805634 231.448303,330.535553 
	C232.264587,330.416687 233.616684,327.888397 233.376602,327.607727 
	C231.984894,325.980560 230.191177,324.697174 227.908112,323.677765 
z"/>
<path fill="#2C3872" opacity="1.000000" stroke="none" 
	d="
M134.247116,328.875916 
	C138.018250,332.283264 141.786469,330.568848 145.671021,329.800507 
	C147.296188,329.479034 149.192276,330.527252 150.965210,330.952728 
	C150.406219,332.703369 150.369583,335.022675 149.194229,336.102356 
	C144.990417,339.964050 135.609848,340.120667 130.486053,336.847321 
	C126.063545,334.022003 123.584290,327.191498 124.850807,321.321930 
	C127.196831,310.449463 133.487366,306.009766 144.095932,308.459717 
	C146.571213,309.031372 148.781174,311.492554 150.650787,313.512390 
	C151.241684,314.150787 150.629745,317.213928 150.047852,317.383728 
	C148.207367,317.920746 145.881683,318.191956 144.187531,317.491852 
	C141.891251,316.542969 140.499069,314.095825 137.282776,316.340576 
	C131.620544,320.292450 130.825073,322.315704 134.247116,328.875916 
z"/>
<path fill="#2C3872" opacity="1.000000" stroke="none" 
	d="
M158.192398,338.069946 
	C152.712952,335.305176 150.607498,328.287964 153.235916,322.716095 
	C155.969482,316.921326 161.030502,314.714508 166.458755,316.862030 
	C167.222061,317.164032 168.258163,317.310760 168.998779,317.049561 
	C174.001816,315.285339 175.592453,316.146729 175.885620,321.423828 
	C176.125168,325.735779 176.292679,330.109711 175.794800,334.374786 
	C175.607285,335.981110 173.548538,338.521606 172.187027,338.627197 
	C167.689178,338.976013 163.120178,338.407715 158.192398,338.069946 
M160.504013,326.148468 
	C161.203491,327.921082 161.902969,329.693665 162.602463,331.466278 
	C164.246689,330.607666 166.327103,330.091370 167.370804,328.761444 
	C167.992035,327.969879 167.494186,325.364685 166.602921,324.512665 
	C164.636658,322.632996 162.414673,322.943146 160.504013,326.148468 
z"/>
<path fill="#2C3872" opacity="1.000000" stroke="none" 
	d="
M338.293488,331.319946 
	C337.829010,333.987915 337.522827,336.263428 337.241699,338.353058 
	C332.940460,338.560333 329.050934,338.876648 325.159180,338.907471 
	C317.924622,338.964722 314.490875,334.257996 315.067749,325.304047 
	C315.419037,319.851532 321.419708,315.249695 327.044373,316.149628 
	C327.689667,316.252899 328.292114,316.672699 328.934784,316.734772 
	C331.552094,316.987427 335.132599,316.197723 336.550964,317.608734 
	C338.217621,319.266785 338.166840,322.786896 338.558075,325.542450 
	C338.807190,327.297058 338.506165,329.129791 338.293488,331.319946 
M324.494843,324.102417 
	C323.835602,325.738892 322.558167,327.455322 322.755463,328.981049 
	C322.868713,329.856964 325.646942,331.272705 326.735870,330.922638 
	C328.225372,330.443756 329.249237,328.516510 330.472687,327.210083 
	C328.664154,326.021027 326.855621,324.831940 324.494843,324.102417 
z"/>
<path fill="#2DC3E5" opacity="1.000000" stroke="none" 
	d="
M243.789413,194.831818 
	C238.995499,195.168228 234.240540,194.685303 229.604172,195.223618 
	C227.812485,195.431656 226.289688,197.955719 224.458939,199.730164 
	C222.733810,194.752670 221.352234,189.416458 219.598679,184.205399 
	C218.435013,180.747314 219.437561,178.879318 222.844101,178.023560 
	C226.739685,177.044937 230.588043,175.810257 234.532578,175.117920 
	C237.279190,174.635864 238.843018,176.256607 239.540802,179.068726 
	C240.820663,184.226868 242.413422,189.307373 243.789413,194.831818 
z"/>
<path fill="#C0E744" opacity="1.000000" stroke="none" 
	d="
M221.042633,194.619171 
	C215.691101,198.930649 210.237656,202.849640 204.479767,206.876404 
	C202.412643,202.156387 200.510147,197.373962 198.925110,192.488541 
	C197.207947,187.195816 196.607529,184.867310 203.511749,182.908447 
	C205.978409,182.208633 208.449371,181.405167 210.974655,181.055435 
	C216.323517,180.314636 218.744247,182.706390 219.965286,189.500259 
	C220.249741,191.083038 220.613464,192.651566 221.042633,194.619171 
z"/>
<path fill="#2C3872" opacity="1.000000" stroke="none" 
	d="
M274.450348,338.939026 
	C271.489838,337.583069 268.950439,336.244751 265.489258,334.420624 
	C268.558868,332.193054 270.269562,330.951630 271.982300,329.715179 
	C268.616425,326.081299 267.947418,320.946106 270.467224,318.074799 
	C272.778931,315.440704 280.870728,314.896759 283.807983,317.499390 
	C284.808563,318.385986 285.755646,321.080963 285.315063,321.514465 
	C284.053589,322.755707 282.068237,323.261169 280.226074,324.122070 
	C280.727844,324.486816 282.107117,325.044159 282.776672,326.066345 
	C284.292572,328.380646 286.647705,331.006256 286.485565,333.355042 
	C286.247681,336.801788 283.019989,338.691559 279.358337,338.914459 
	C277.867401,339.005188 276.367371,338.947021 274.450348,338.939026 
z"/>
<path fill="#2C3872" opacity="1.000000" stroke="none" 
	d="
M243.995819,332.320190 
	C244.027695,328.060303 243.705994,324.183258 244.243668,320.429321 
	C244.473434,318.825226 246.495285,317.477844 247.702820,316.013794 
	C248.780106,317.497314 250.353989,318.844696 250.807587,320.499207 
	C251.360504,322.515961 250.636078,324.867218 251.104324,326.928314 
	C251.433395,328.376831 252.831543,329.582428 253.752319,330.896515 
	C255.146576,329.708893 257.305847,328.755615 257.758148,327.279419 
	C258.459839,324.989197 257.673798,322.277863 258.153778,319.871796 
	C258.434387,318.464966 259.949005,317.304352 260.908478,316.032959 
	C262.203705,317.094971 264.515625,318.071167 264.613770,319.234161 
	C264.988495,323.674133 265.359863,328.330536 264.416016,332.616180 
	C262.903259,339.484894 251.246292,341.753693 246.408646,336.433044 
	C245.433228,335.360229 244.787781,333.987396 243.995819,332.320190 
z"/>
<path fill="#2C3872" opacity="1.000000" stroke="none" 
	d="
M292.467255,284.775055 
	C295.838348,291.256714 293.289093,297.273712 289.314148,299.240051 
	C283.939758,301.898590 276.583191,300.683380 273.587799,296.229614 
	C271.231750,292.726471 273.306610,284.078186 277.099213,281.593414 
	C283.302307,277.529449 288.484192,278.508850 292.467255,284.775055 
M287.119232,291.616760 
	C286.371918,289.663116 285.919769,287.490509 284.719696,285.872742 
	C284.290466,285.294159 281.479065,285.543335 280.775787,286.328766 
	C279.734314,287.491943 278.974274,289.568024 279.210236,291.081451 
	C279.762177,294.621521 283.074158,295.039093 287.119232,291.616760 
z"/>
<path fill="#2C3872" opacity="1.000000" stroke="none" 
	d="
M225.333405,300.824097 
	C217.028061,297.861664 214.669617,292.535614 217.745773,284.560547 
	C219.009705,281.283783 224.933594,278.360046 228.418793,279.292908 
	C233.820526,280.738708 238.019714,285.978058 237.901245,291.124268 
	C237.786057,296.128082 234.117691,299.613434 227.726089,300.753632 
	C227.076309,300.869537 226.397797,300.824371 225.333405,300.824097 
M222.794815,291.906189 
	C222.845245,292.236420 223.016602,292.447662 223.880722,293.066376 
	C224.106964,293.192627 224.333221,293.318909 224.797729,293.887817 
	C230.033310,294.669189 231.451126,293.195862 230.445282,287.721100 
	C230.445282,287.721100 230.239731,287.558746 230.060196,286.929565 
	C228.084167,284.905823 226.052490,284.327850 223.743698,286.744171 
	C223.743698,286.744171 223.678741,286.903137 223.315109,287.026337 
	C223.087128,287.204193 223.012390,287.432251 222.807510,288.291779 
	C222.767181,288.503510 222.726868,288.715240 222.193192,289.046478 
	C222.337891,289.676208 222.482574,290.305908 222.658844,291.299377 
	C222.658844,291.299377 222.855789,291.606842 222.794815,291.906189 
z"/>
<path fill="#2C3872" opacity="1.000000" stroke="none" 
	d="
M361.392151,318.596008 
	C362.776825,316.253296 363.962433,314.233185 365.287598,312.309204 
	C366.320557,310.809357 367.527100,309.429047 368.656494,307.995605 
	C370.043518,309.477692 371.660889,310.813477 372.730225,312.497314 
	C373.361023,313.490601 373.123413,315.035339 373.115509,314.968292 
	C375.311523,317.088623 377.373901,318.170868 377.832825,319.726257 
	C378.609772,322.359528 376.959106,323.795532 374.103851,324.349091 
	C373.196381,324.524994 372.502991,326.788635 372.098541,328.207214 
	C371.855743,329.058838 372.588043,330.148651 372.484833,331.087769 
	C372.231750,333.390961 372.011658,335.771881 371.183228,337.888611 
	C370.960175,338.458557 367.757385,338.760681 367.390198,338.208923 
	C366.248810,336.493835 365.426025,334.354309 365.188629,332.297607 
	C364.784607,328.797180 365.916199,324.979004 361.774597,322.688721 
	C361.115143,322.324036 361.403198,320.245941 361.392151,318.596008 
z"/>
<path fill="#2C3872" opacity="1.000000" stroke="none" 
	d="
M328.685486,170.397751 
	C332.617798,176.216660 334.657990,182.179031 332.871918,188.799622 
	C332.480988,190.248703 330.580902,191.290649 329.258453,192.639847 
	C327.954071,187.104126 326.676880,182.744339 325.931702,178.295441 
	C324.480835,169.633499 317.515869,167.157806 310.869476,164.099518 
	C309.466034,163.453720 308.500580,161.855988 307.333344,160.696869 
	C309.211426,160.088593 311.326691,158.597336 312.925964,159.026947 
	C319.377411,160.760040 324.960266,164.068344 328.685486,170.397751 
z"/>
<path fill="#3F6E42" opacity="1.000000" stroke="none" 
	d="
M208.114319,246.844055 
	C206.506226,244.108734 204.983444,241.351669 203.282089,238.709564 
	C197.672195,229.997787 197.499161,220.954102 201.701630,211.357574 
	C204.958664,222.785492 207.972366,234.471451 210.672638,246.563141 
	C209.599976,246.954422 208.840759,246.939972 208.081528,246.925507 
	C208.081528,246.925507 208.117828,246.874969 208.114319,246.844055 
z"/>
<path fill="#2C3872" opacity="1.000000" stroke="none" 
	d="
M278.970306,182.201721 
	C277.897583,180.680786 276.824860,179.159851 275.605103,177.363770 
	C277.860626,177.201141 280.949463,178.290878 282.505585,177.198074 
	C284.864716,175.541367 286.158386,172.367386 288.597260,168.834946 
	C285.194244,170.029999 283.094177,170.767502 280.994080,171.505005 
	C280.601929,171.098877 280.209778,170.692749 279.817596,170.286621 
	C281.378021,168.180145 283.083649,164.247360 284.467896,164.357391 
	C287.134186,164.569321 290.565063,166.488251 291.953613,168.755814 
	C293.961121,172.034164 292.163025,175.382782 287.806152,178.119858 
	C290.806854,178.768539 293.021027,179.247192 295.492493,179.866196 
	C294.034119,181.280960 292.318390,182.555374 290.095703,183.664642 
	C286.049286,183.066910 282.509796,182.634308 278.970306,182.201721 
z"/>
<path fill="#2C3872" opacity="1.000000" stroke="none" 
	d="
M314.192139,177.859863 
	C312.310303,176.509613 310.812500,175.120529 309.042206,174.421143 
	C305.218597,172.910522 304.996735,170.970795 307.822571,168.274261 
	C317.117096,170.680176 322.817902,176.417435 322.890503,183.946091 
	C322.905884,185.540863 321.536743,187.148987 320.805511,188.750961 
	C319.806488,187.492218 318.638947,186.330338 317.847076,184.952530 
	C316.584198,182.755112 315.571259,180.414032 314.192139,177.859863 
z"/>
<path fill="#3F6E42" opacity="1.000000" stroke="none" 
	d="
M284.672424,242.094955 
	C280.689178,250.558701 267.336182,252.829239 258.919250,246.240463 
	C267.254669,244.616791 275.739563,243.329727 284.672424,242.094955 
z"/>
<path fill="#243374" opacity="1.000000" stroke="none" 
	d="
M351.005157,323.838501 
	C351.005157,323.838501 350.538452,323.951080 349.941528,324.136169 
	C348.893402,326.808716 348.582367,329.333374 347.936707,331.769287 
	C347.568420,333.158630 346.654358,334.403290 345.986053,335.713104 
	C345.197571,334.630127 344.394775,333.557220 343.625153,332.460968 
	C343.026581,331.608337 342.469452,330.726654 341.893921,329.857880 
	C341.957703,328.820984 342.021484,327.784058 342.402039,326.130981 
	C343.207642,323.975006 343.601562,322.396759 344.205902,320.903687 
	C345.351746,318.072937 355.693695,318.166412 357.324127,320.951935 
	C355.220306,321.912994 353.112732,322.875732 351.005157,323.838501 
z"/>
<path fill="#588EA1" opacity="1.000000" stroke="none" 
	d="
M250.315018,239.147308 
	C250.708145,235.969559 250.202850,233.367905 246.413712,231.787872 
	C245.750793,229.246506 245.283829,227.142181 244.816849,225.037872 
	C249.655319,225.101410 248.309387,220.886795 249.632721,218.033386 
	C251.531647,223.144867 253.401459,228.551834 254.845627,234.070190 
	C255.653366,237.156586 254.077774,239.037827 250.315018,239.147308 
z"/>
<path fill="#588EA1" opacity="1.000000" stroke="none" 
	d="
M216.377747,277.367249 
	C243.154282,276.970795 270.099762,276.961761 297.777100,276.937225 
	C298.687073,276.957733 298.865173,276.993744 299.043243,277.029785 
	C298.382141,277.347839 297.720764,277.944519 297.059998,277.943817 
	C270.222229,277.914368 243.384460,277.831085 216.377747,277.367249 
z"/>
<path fill="#2C3872" opacity="1.000000" stroke="none" 
	d="
M351.459412,323.881592 
	C353.112732,322.875732 355.220306,321.912994 357.324127,320.951935 
	C355.693695,318.166412 345.351746,318.072937 344.205902,320.903687 
	C343.601562,322.396759 343.207642,323.975006 342.438354,325.742493 
	C342.122620,323.976196 341.796417,321.928131 342.153595,320.007080 
	C342.394104,318.713715 343.546082,316.617004 344.383575,316.570801 
	C348.699066,316.332672 353.160797,316.116119 357.318329,317.036163 
	C358.824890,317.369507 359.628998,320.877319 361.293243,323.924713 
	C357.133850,323.924713 354.523773,323.924713 351.459412,323.881592 
z"/>
<path fill="#3F6E42" opacity="1.000000" stroke="none" 
	d="
M233.619110,249.059479 
	C229.623322,256.210785 228.771072,256.380096 217.452789,252.141037 
	C222.486145,251.008759 227.844467,250.031021 233.619110,249.059479 
z"/>
<path fill="#2C3872" opacity="1.000000" stroke="none" 
	d="
M341.581238,330.077576 
	C342.469452,330.726654 343.026581,331.608337 343.625153,332.460968 
	C344.394775,333.557220 345.197571,334.630127 345.986053,335.713104 
	C346.654358,334.403290 347.568420,333.158630 347.936707,331.769287 
	C348.582367,329.333374 348.893402,326.808716 349.704285,324.172791 
	C350.023468,327.316864 350.470215,330.719757 349.759064,333.860474 
	C349.334595,335.735107 347.381989,338.062561 345.605713,338.654602 
	C342.550873,339.672821 341.877563,337.172516 341.887177,334.523041 
	C341.892303,333.115234 341.488037,331.705902 341.581238,330.077576 
z"/>
<path fill="#2C3872" opacity="1.000000" stroke="none" 
	d="
M207.070709,265.388580 
	C207.558136,265.363708 208.474365,265.704010 208.512619,266.124268 
	C208.953888,270.971588 212.069092,273.863800 215.862946,276.693054 
	C211.603195,277.301147 209.363327,274.594269 207.983261,271.039642 
	C207.354034,269.418976 207.368942,267.548248 207.070709,265.388580 
z"/>
<path fill="#2C3872" opacity="1.000000" stroke="none" 
	d="
M299.341858,276.836365 
	C298.865173,276.993744 298.687073,276.957733 298.240295,276.874878 
	C297.701904,274.544403 297.432251,272.260712 297.082886,269.663635 
	C300.940765,270.675079 302.041382,273.025879 299.341858,276.836365 
z"/>
<path fill="#2C3872" opacity="1.000000" stroke="none" 
	d="
M208.221527,247.215973 
	C208.840759,246.939972 209.599976,246.954422 210.739532,246.962677 
	C211.398941,248.072464 211.677994,249.188431 211.898361,250.663116 
	C210.680283,249.850021 209.520905,248.678238 208.221527,247.215973 
z"/>
<path fill="#2C3872" opacity="1.000000" stroke="none" 
	d="
M292.736694,268.840424 
	C291.189514,269.268555 289.437042,269.414398 287.390137,269.387390 
	C288.907623,268.995697 290.719513,268.776917 292.736694,268.840424 
z"/>
<path fill="#2C3872" opacity="1.000000" stroke="none" 
	d="
M248.458130,269.182526 
	C246.182220,269.357910 243.471558,269.468506 240.433411,269.401062 
	C242.745087,269.187958 245.384247,269.152832 248.458130,269.182526 
z"/>
<path fill="#2C3872" opacity="1.000000" stroke="none" 
	d="
M266.777588,268.788940 
	C265.822571,269.183807 264.673889,269.310883 263.277496,269.247192 
	C264.214508,268.877991 265.399231,268.699554 266.777588,268.788940 
z"/>
<path fill="#2C3872" opacity="1.000000" stroke="none" 
	d="
M237.805298,268.741791 
	C236.566406,269.184296 235.119400,269.376373 233.391830,269.401062 
	C234.606567,268.986237 236.101898,268.738770 237.805298,268.741791 
z"/>
<path fill="#2C3872" opacity="1.000000" stroke="none" 
	d="
M283.572205,269.157043 
	C283.121979,269.315765 282.319092,269.420502 281.303040,269.373718 
	C281.799774,269.182465 282.509644,269.142731 283.572205,269.157043 
z"/>
<path fill="#588EA1" opacity="1.000000" stroke="none" 
	d="
M249.911713,215.981216 
	C249.539444,215.737411 249.277527,215.122543 248.994751,214.170990 
	C249.323288,214.426254 249.672653,215.018188 249.911713,215.981216 
z"/>
<path fill="#2C3872" opacity="1.000000" stroke="none" 
	d="
M253.741257,246.115448 
	C253.980988,246.169754 253.626038,246.378510 253.626038,246.378510 
	C253.626038,246.378510 253.229034,246.322525 253.122620,246.231033 
	C253.016205,246.139542 253.501526,246.061127 253.741257,246.115448 
z"/>
<path fill="#2C3872" opacity="1.000000" stroke="none" 
	d="
M294.807312,268.891968 
	C294.858551,269.047638 294.497253,269.039581 294.317017,269.043152 
	C294.136749,269.046692 294.369202,268.637146 294.369202,268.637146 
	C294.369202,268.637146 294.756042,268.736328 294.807312,268.891968 
z"/>
<path fill="#2C3872" opacity="1.000000" stroke="none" 
	d="
M285.943848,268.814575 
	C285.864044,268.989594 285.681671,268.990112 285.225647,268.989624 
	C285.248383,268.872375 285.544830,268.756195 285.943848,268.814575 
z"/>
<path fill="#2C3872" opacity="1.000000" stroke="none" 
	d="
M253.867004,268.859344 
	C253.941513,269.022827 253.499771,269.018799 253.279007,269.020752 
	C253.302994,268.913757 253.547745,268.804810 253.867004,268.859344 
z"/>
<path fill="#000000" opacity="1.000000" stroke="none" 
	d="
M278.973419,182.554169 
	C282.509796,182.634308 286.049286,183.066910 289.800842,183.834381 
	C284.253113,188.150772 283.059845,188.014252 278.973419,182.554169 
z"/>
<path fill="#000000" opacity="1.000000" stroke="none" 
	d="
M224.267944,232.811859 
	C229.083237,239.105850 222.416702,237.192856 219.441605,239.666992 
	C219.586853,236.469772 219.686111,234.285019 219.785370,232.100281 
	C221.187454,232.250610 222.589523,232.400955 224.267944,232.811859 
z"/>
<path fill="#000000" opacity="1.000000" stroke="none" 
	d="
M244.432343,224.997284 
	C245.283829,227.142181 245.750793,229.246506 246.080139,231.693420 
	C244.040649,232.036026 242.138824,232.036026 240.266815,232.036026 
	C239.524933,228.214890 239.894745,225.502274 244.432343,224.997284 
z"/>
<path fill="#000000" opacity="1.000000" stroke="none" 
	d="
M228.220795,323.487610 
	C230.191177,324.697174 231.984894,325.980560 233.376602,327.607727 
	C233.616684,327.888397 232.264587,330.416687 231.448303,330.535553 
	C229.593384,330.805634 226.740219,330.927582 225.865112,329.842163 
	C223.961426,327.480927 224.583221,324.870514 228.220795,323.487610 
z"/>
<path fill="#000000" opacity="1.000000" stroke="none" 
	d="
M160.710632,325.841553 
	C162.414673,322.943146 164.636658,322.632996 166.602921,324.512665 
	C167.494186,325.364685 167.992035,327.969879 167.370804,328.761444 
	C166.327103,330.091370 164.246689,330.607666 162.602463,331.466278 
	C161.902969,329.693665 161.203491,327.921082 160.710632,325.841553 
z"/>
<path fill="#000000" opacity="1.000000" stroke="none" 
	d="
M324.770996,323.872620 
	C326.855621,324.831940 328.664154,326.021027 330.472687,327.210083 
	C329.249237,328.516510 328.225372,330.443756 326.735870,330.922638 
	C325.646942,331.272705 322.868713,329.856964 322.755463,328.981049 
	C322.558167,327.455322 323.835602,325.738892 324.770996,323.872620 
z"/>
<path fill="#C0E744" opacity="1.000000" stroke="none" 
	d="
M286.990356,291.946075 
	C283.074158,295.039093 279.762177,294.621521 279.210236,291.081451 
	C278.974274,289.568024 279.734314,287.491943 280.775787,286.328766 
	C281.479065,285.543335 284.290466,285.294159 284.719696,285.872742 
	C285.919769,287.490509 286.371918,289.663116 286.990356,291.946075 
z"/>
<path fill="#C0E744" opacity="1.000000" stroke="none" 
	d="
M222.686539,288.926971 
	C222.726868,288.715240 222.767181,288.503510 223.088318,287.903015 
	C223.547211,287.348572 223.650421,287.144867 223.678741,286.903137 
	C223.678741,286.903137 223.743698,286.744171 224.226318,286.750122 
	C226.552521,287.023621 228.396133,287.291199 230.239731,287.558746 
	C230.239731,287.558746 230.445282,287.721100 230.353058,288.223938 
	C230.067841,292.362762 227.450134,293.068909 224.559464,293.445190 
	C224.333221,293.318909 224.106964,293.192627 223.673553,292.663910 
	C223.422180,291.887024 223.218643,291.668823 222.855789,291.606842 
	C222.855789,291.606842 222.658844,291.299377 222.737244,290.791626 
	C222.772614,289.831543 222.729568,289.379272 222.686539,288.926971 
z"/>
<path fill="#86CF29" opacity="1.000000" stroke="none" 
	d="
M224.678589,293.666504 
	C227.450134,293.068909 230.067841,292.362762 230.371765,288.353546 
	C231.451126,293.195862 230.033310,294.669189 224.678589,293.666504 
z"/>
<path fill="#86CF29" opacity="1.000000" stroke="none" 
	d="
M230.149963,287.244141 
	C228.396133,287.291199 226.552521,287.023621 224.308258,286.724426 
	C226.052490,284.327850 228.084167,284.905823 230.149963,287.244141 
z"/>
<path fill="#86CF29" opacity="1.000000" stroke="none" 
	d="
M222.439865,288.986725 
	C222.729568,289.379272 222.772614,289.831543 222.721451,290.609741 
	C222.482574,290.305908 222.337891,289.676208 222.439865,288.986725 
z"/>
<path fill="#86CF29" opacity="1.000000" stroke="none" 
	d="
M222.825302,291.756531 
	C223.218643,291.668823 223.422180,291.887024 223.387634,292.400665 
	C223.016602,292.447662 222.845245,292.236420 222.825302,291.756531 
z"/>
<path fill="#86CF29" opacity="1.000000" stroke="none" 
	d="
M223.496918,286.964722 
	C223.650421,287.144867 223.547211,287.348572 223.230011,287.612427 
	C223.012390,287.432251 223.087128,287.204193 223.496918,286.964722 
z"/>
</svg>